<?xml version="1.0" encoding="UTF-8"?><svg id="a" xmlns="http://www.w3.org/2000/svg" viewBox="0 0 612 216"><polygon points="512.38 159.55 523.23 122.94 525.75 122.94 514.9 159.55 512.38 159.55" fill="#d1d3d4" stroke-width="0"/><polygon points="517.36 159.55 528.21 122.94 530.73 122.94 519.88 159.55 517.36 159.55" fill="#d1d3d4" stroke-width="0"/><polygon points="507.4 159.55 518.25 122.94 520.77 122.94 509.92 159.55 507.4 159.55" fill="#d1d3d4" stroke-width="0"/><polygon points="502.42 159.55 513.27 122.94 515.79 122.94 504.94 159.55 502.42 159.55" fill="#d1d3d4" stroke-width="0"/><polygon points="497.44 159.55 508.29 122.94 510.81 122.94 499.96 159.55 497.44 159.55" fill="#d1d3d4" stroke-width="0"/><polygon points="492.46 159.55 503.31 122.94 505.83 122.94 494.98 159.55 492.46 159.55" fill="#d1d3d4" stroke-width="0"/><polygon points="487.48 159.55 498.33 122.94 500.85 122.94 490 159.55 487.48 159.55" fill="#d1d3d4" stroke-width="0"/><polygon points="482.5 159.55 493.34 122.94 495.86 122.94 485.02 159.55 482.5 159.55" fill="#d1d3d4" stroke-width="0"/><polygon points="477.52 159.55 488.36 122.94 490.88 122.94 480.04 159.55 477.52 159.55" fill="#d1d3d4" stroke-width="0"/><polygon points="472.54 159.55 483.38 122.94 485.9 122.94 475.06 159.55 472.54 159.55" fill="#d1d3d4" stroke-width="0"/><polygon points="467.56 159.55 478.4 122.94 480.92 122.94 470.08 159.55 467.56 159.55" fill="#d1d3d4" stroke-width="0"/><polygon points="462.58 159.55 473.42 122.94 475.94 122.94 465.1 159.55 462.58 159.55" fill="#d1d3d4" stroke-width="0"/><polygon points="457.6 159.55 468.44 122.94 470.96 122.94 460.12 159.55 457.6 159.55" fill="#d1d3d4" stroke-width="0"/><polygon points="452.62 159.55 463.46 122.94 465.98 122.94 455.14 159.55 452.62 159.55" fill="#d1d3d4" stroke-width="0"/><polygon points="447.63 159.55 458.48 122.94 461 122.94 450.15 159.55 447.63 159.55" fill="#d1d3d4" stroke-width="0"/><polygon points="442.65 159.55 453.5 122.94 456.02 122.94 445.17 159.55 442.65 159.55" fill="#d1d3d4" stroke-width="0"/><polygon points="437.67 159.55 448.52 122.94 451.04 122.94 440.19 159.55 437.67 159.55" fill="#d1d3d4" stroke-width="0"/><polygon points="432.69 159.55 443.54 122.94 446.06 122.94 435.21 159.55 432.69 159.55" fill="#d1d3d4" stroke-width="0"/><polygon points="427.71 159.55 438.56 122.94 441.08 122.94 430.23 159.55 427.71 159.55" fill="#d1d3d4" stroke-width="0"/><polygon points="422.73 159.55 433.58 122.94 436.1 122.94 425.25 159.55 422.73 159.55" fill="#d1d3d4" stroke-width="0"/><polygon points="417.75 159.55 428.6 122.94 431.11 122.94 420.27 159.55 417.75 159.55" fill="#d1d3d4" stroke-width="0"/><polygon points="412.77 159.55 423.61 122.94 426.13 122.94 415.29 159.55 412.77 159.55" fill="#d1d3d4" stroke-width="0"/><polygon points="407.79 159.55 418.63 122.94 421.15 122.94 410.31 159.55 407.79 159.55" fill="#d1d3d4" stroke-width="0"/><polygon points="402.81 159.55 413.65 122.94 416.17 122.94 405.33 159.55 402.81 159.55" fill="#d1d3d4" stroke-width="0"/><polygon points="397.83 159.55 408.67 122.94 411.19 122.94 400.35 159.55 397.83 159.55" fill="#d1d3d4" stroke-width="0"/><polygon points="392.85 159.55 403.69 122.94 406.21 122.94 395.37 159.55 392.85 159.55" fill="#d1d3d4" stroke-width="0"/><polygon points="387.87 159.55 398.71 122.94 401.23 122.94 390.39 159.55 387.87 159.55" fill="#d1d3d4" stroke-width="0"/><polygon points="382.88 159.55 393.73 122.94 396.25 122.94 385.4 159.55 382.88 159.55" fill="#d1d3d4" stroke-width="0"/><path d="M144.53,56.99h12.59c10.42,0,12.32,2.84,12.32,15.56s-2.03,15.56-12.32,15.56h-5.01v23.96h-7.58s0-55.09,0-55.09ZM152.24,81.76h3.93c5.14,0,5.68-.81,5.68-9.2s-.54-9.2-5.68-9.2h-3.93v18.41Z" fill="#010101" stroke-width="0"/><path d="M179.45,56.99h20.84v6.36h-13.26v17.32h12.32v6.36h-12.32v18.81h13.13v6.36h-20.71v-55.22Z" fill="#010101" stroke-width="0"/><path d="M209.49,56.99h11.91c11.1,0,12.32,2.98,12.32,15.02,0,7.44-.95,10.69-7.31,12.59v.14c5.14.54,6.9,3.25,6.9,8.39v12.05c0,2.03,0,4.74.41,7.04h-7.17c-.81-1.35-.95-2.71-.95-5.01v-12.45c0-5.14-.95-6.63-5.96-6.63h-2.57v23.96h-7.58v-55.09ZM217.07,81.76h2.03c6.09,0,6.9-1.08,6.9-9.34s-.41-8.93-5.14-8.93h-3.65v18.27h-.14Z" fill="#010101" stroke-width="0"/><path d="M244.01,56.99h20.84v6.36h-13.13v17.32h12.32v6.36h-12.32v25.04h-7.58v-55.09h-.14Z" fill="#010101" stroke-width="0"/><path d="M273.92,56.99h7.58v55.22h-7.58v-55.22Z" fill="#010101" stroke-width="0"/><path d="M291.51,71.07c0-7.71,2.57-14.48,12.86-14.48,7.58,0,11.1,3.79,11.1,10.02v5.55h-7.17v-3.79c0-3.52-1.22-5.68-4.47-5.68-3.93,0-4.74,2.84-4.74,9.47v27.07c0,6.5,2.03,7.58,4.47,7.58,2.84,0,4.6-2.03,4.6-6.63v-3.79h7.17v6.09c0,5.82-2.44,10.29-11.23,10.29-9.61,0-12.72-5.14-12.72-13.67v-28.02h.14Z" fill="#010101" stroke-width="0"/><path d="M324.81,56.99h7.58v55.22h-7.58v-55.22Z" fill="#010101" stroke-width="0"/><path d="M342.81,56.99h20.84v6.36h-13.13v17.32h12.32v6.36h-12.32v18.81h13.13v6.36h-20.84v-55.22Z" fill="#010101" stroke-width="0"/><path d="M372.86,56.99h10.56l9.07,45.88h.14v-45.88h7.17v55.22h-11.1l-9.07-47.1h-.14v47.1h-6.77v-55.22h.14Z" fill="#010101" stroke-width="0"/><path d="M408.99,56.99h25.99v6.36h-9.2v48.72h-7.58v-48.72h-9.2v-6.36Z" fill="#010101" stroke-width="0"/><path d="M440.38,62.94c1.76,0,3.25-1.49,3.25-3.25s-1.35-3.25-3.25-3.25c-1.76,0-3.25,1.49-3.25,3.25,0,1.89,1.49,3.25,3.25,3.25h0ZM440.38,62.4c-1.49,0-2.71-1.22-2.71-2.71s1.22-2.57,2.71-2.57,2.57,1.22,2.57,2.57c0,1.49-1.22,2.71-2.57,2.71h0ZM440.11,59.97c.27,0,.41,0,.54.14s.14.54.27.81c0,.27.14.41.14.68h.81c-.14-.41-.14-.68-.27-1.08,0-.41-.14-.68-.68-.68h0c.54-.14.81-.41.81-.81,0-.81-.68-1.08-1.35-1.08h-1.22v3.79h.54v-1.62h.41v-.14ZM439.7,59.43v-.95h.68c.41,0,.54.14.54.41s-.14.54-.68.54h-.54Z" fill="#010101" stroke-width="0"/><path d="M95.75,154.61h-2.96c-.34,0-.62-.09-.83-.26s-.37-.39-.47-.65l-2.64-6.83h-12.69l-2.64,6.83c-.09.24-.25.45-.47.63-.22.18-.5.28-.83.28h-2.96l11.31-28.28h3.89l11.31,28.28ZM77.22,144.11h10.56l-4.44-11.51c-.29-.71-.57-1.6-.85-2.66-.15.54-.29,1.04-.42,1.49-.14.45-.27.85-.4,1.19l-4.44,11.49Z" fill="#cc2127" stroke="#cc2127" stroke-miterlimit="10" stroke-width="2"/><path d="M126.32,148.77c.21,0,.4.09.57.26l1.5,1.64c-1.16,1.34-2.56,2.39-4.21,3.14-1.65.75-3.64,1.12-5.97,1.12-2.04,0-3.89-.35-5.55-1.06-1.66-.7-3.07-1.69-4.24-2.96-1.17-1.27-2.08-2.79-2.72-4.57-.65-1.78-.97-3.73-.97-5.86s.35-4.08,1.04-5.86c.69-1.78,1.66-3.3,2.91-4.58,1.25-1.28,2.75-2.27,4.49-2.97,1.74-.7,3.67-1.06,5.77-1.06s3.87.32,5.38.97c1.51.65,2.85,1.52,4.02,2.62l-1.24,1.76c-.09.13-.2.24-.32.33-.12.09-.29.13-.51.13-.17,0-.35-.06-.54-.19-.19-.12-.42-.28-.68-.46-.26-.18-.57-.38-.93-.59-.35-.21-.78-.41-1.26-.59-.49-.18-1.05-.34-1.7-.46-.65-.12-1.39-.19-2.23-.19-1.51,0-2.9.26-4.15.78-1.26.52-2.34,1.26-3.25,2.22-.91.96-1.62,2.13-2.12,3.51-.51,1.38-.76,2.93-.76,4.64s.25,3.34.76,4.72,1.2,2.55,2.07,3.5c.87.95,1.91,1.68,3.11,2.18,1.2.5,2.49.75,3.87.75.84,0,1.6-.05,2.27-.15.67-.1,1.29-.25,1.87-.46s1.1-.48,1.6-.8c.49-.32.99-.71,1.49-1.15.22-.2.44-.3.65-.3Z" fill="#cc2127" stroke="#cc2127" stroke-miterlimit="10" stroke-width="2"/><path d="M161.25,148.77c.21,0,.4.09.57.26l1.5,1.64c-1.16,1.34-2.56,2.39-4.21,3.14-1.65.75-3.64,1.12-5.97,1.12-2.04,0-3.89-.35-5.55-1.06-1.66-.7-3.07-1.69-4.24-2.96-1.17-1.27-2.08-2.79-2.72-4.57-.65-1.78-.97-3.73-.97-5.86s.35-4.08,1.04-5.86c.69-1.78,1.66-3.3,2.91-4.58,1.25-1.28,2.75-2.27,4.49-2.97,1.74-.7,3.67-1.06,5.77-1.06s3.87.32,5.38.97c1.51.65,2.85,1.52,4.02,2.62l-1.24,1.76c-.09.13-.2.24-.32.33-.12.09-.29.13-.51.13-.17,0-.35-.06-.54-.19-.19-.12-.42-.28-.68-.46-.26-.18-.57-.38-.93-.59-.35-.21-.78-.41-1.26-.59-.49-.18-1.05-.34-1.7-.46-.65-.12-1.39-.19-2.23-.19-1.51,0-2.9.26-4.15.78-1.26.52-2.34,1.26-3.25,2.22-.91.96-1.62,2.13-2.12,3.51-.51,1.38-.76,2.93-.76,4.64s.25,3.34.76,4.72,1.2,2.55,2.07,3.5c.87.95,1.91,1.68,3.11,2.18,1.2.5,2.49.75,3.87.75.84,0,1.6-.05,2.27-.15.67-.1,1.29-.25,1.87-.46s1.1-.48,1.6-.8c.49-.32.99-.71,1.49-1.15.22-.2.44-.3.65-.3Z" fill="#cc2127" stroke="#cc2127" stroke-miterlimit="10" stroke-width="2"/><path d="M193.67,126.33v3.12h-13.58v9.39h10.99v3h-10.99v9.65h13.58v3.12h-17.43v-28.28h17.43Z" fill="#cc2127" stroke="#cc2127" stroke-miterlimit="10" stroke-width="2"/><path d="M210.9,151.39h12.24v3.22h-16.06v-28.28h3.83v25.06Z" fill="#cc2127" stroke="#cc2127" stroke-miterlimit="10" stroke-width="2"/><path d="M252.68,126.33v3.12h-13.58v9.39h10.99v3h-10.99v9.65h13.58v3.12h-17.43v-28.28h17.43Z" fill="#cc2127" stroke="#cc2127" stroke-miterlimit="10" stroke-width="2"/><path d="M270.28,142.81v11.8h-3.81v-28.28h7.99c1.79,0,3.33.18,4.64.54,1.3.36,2.38.88,3.23,1.57s1.48,1.51,1.88,2.48c.41.97.61,2.05.61,3.25,0,1-.16,1.93-.47,2.8-.32.87-.77,1.65-1.37,2.34-.6.69-1.33,1.28-2.19,1.77s-1.84.86-2.93,1.1c.47.28.89.68,1.26,1.2l8.25,11.23h-3.39c-.7,0-1.21-.27-1.54-.81l-7.34-10.1c-.22-.32-.47-.54-.73-.68-.26-.14-.66-.21-1.18-.21h-2.9ZM270.28,140.02h4.01c1.12,0,2.1-.13,2.95-.4.85-.27,1.56-.65,2.13-1.14.57-.49,1-1.08,1.29-1.77.29-.68.43-1.44.43-2.27,0-1.68-.56-2.95-1.67-3.81-1.11-.85-2.77-1.28-4.96-1.28h-4.18v10.68Z" fill="#cc2127" stroke="#cc2127" stroke-miterlimit="10" stroke-width="2"/><path d="M322.66,154.61h-2.96c-.34,0-.62-.09-.83-.26-.21-.17-.37-.39-.47-.65l-2.64-6.83h-12.69l-2.64,6.83c-.09.24-.25.45-.47.63-.22.18-.5.28-.83.28h-2.96l11.31-28.28h3.89l11.31,28.28ZM304.13,144.11h10.56l-4.44-11.51c-.29-.71-.57-1.6-.85-2.66-.15.54-.29,1.04-.42,1.49-.14.45-.27.85-.4,1.19l-4.44,11.49Z" fill="#cc2127" stroke="#cc2127" stroke-miterlimit="10" stroke-width="2"/><path d="M350.78,126.33v3.22h-9.14v25.06h-3.83v-25.06h-9.18v-3.22h22.14Z" fill="#cc2127" stroke="#cc2127" stroke-miterlimit="10" stroke-width="2"/><path d="M380.13,126.33v3.12h-13.58v9.39h10.99v3h-10.99v9.65h13.58v3.12h-17.43v-28.28h17.43Z" fill="#cc2127" stroke="#cc2127" stroke-miterlimit="10" stroke-width="2"/><polygon points="464.22 108.02 456.33 112.75 456.33 103.29 464.22 108.02" fill="#bcbec0" stroke-width="0"/><polygon points="453.18 108.02 445.29 112.75 445.29 103.29 453.18 108.02" fill="#bcbec0" stroke-width="0"/><polygon points="442.13 108.02 434.24 112.75 434.24 103.29 442.13 108.02" fill="#bcbec0" stroke-width="0"/><polygon points="135.35 61.39 127.46 66.12 127.46 56.66 135.35 61.39" fill="#bcbec0" stroke-width="0"/><polygon points="124.31 61.39 116.42 66.12 116.42 56.66 124.31 61.39" fill="#bcbec0" stroke-width="0"/><polygon points="113.27 61.39 105.38 66.12 105.38 56.66 113.27 61.39" fill="#bcbec0" stroke-width="0"/><path d="M410.91,126.01c1.3,0,2.5.19,3.58.58,1.08.38,2.01.93,2.78,1.63.77.7,1.37,1.55,1.8,2.54.43.99.65,2.09.65,3.3,0,1.04-.15,2.01-.46,2.89-.31.89-.72,1.73-1.23,2.54-.51.81-1.12,1.59-1.81,2.35-.69.76-1.41,1.52-2.17,2.31l-6.37,6.51c.63-.18,1.24-.32,1.84-.42s1.17-.15,1.72-.15h7.25c.52,0,.94.15,1.24.44.31.29.46.68.46,1.16v2.89h-19.39v-1.6c0-.33.07-.66.21-1.02.14-.35.36-.68.66-.98l8.58-8.6c.72-.73,1.36-1.43,1.93-2.09.57-.66,1.04-1.32,1.43-1.97.38-.65.68-1.31.88-1.98.2-.67.3-1.38.3-2.12,0-.68-.1-1.27-.29-1.79-.2-.51-.48-.95-.84-1.3-.37-.35-.8-.62-1.3-.79-.5-.18-1.07-.26-1.69-.26-1.16,0-2.11.29-2.86.88s-1.27,1.38-1.57,2.37c-.14.5-.36.85-.65,1.07-.29.21-.65.32-1.09.32-.2,0-.41-.02-.65-.06l-2.54-.45c.2-1.36.57-2.54,1.13-3.57.56-1.02,1.26-1.88,2.1-2.56.84-.68,1.8-1.2,2.89-1.54,1.09-.35,2.26-.52,3.51-.52Z" stroke-width="0"/><path d="M451.34,140.46c0,2.46-.26,4.6-.79,6.42-.53,1.82-1.26,3.32-2.19,4.51-.93,1.19-2.03,2.07-3.3,2.65-1.27.58-2.64.87-4.12.87s-2.84-.29-4.1-.87c-1.26-.58-2.35-1.46-3.27-2.65-.93-1.19-1.65-2.69-2.17-4.51-.52-1.82-.78-3.96-.78-6.42s.26-4.62.78-6.43c.52-1.81,1.24-3.31,2.17-4.5.93-1.19,2.02-2.07,3.27-2.65,1.26-.58,2.62-.87,4.1-.87s2.84.29,4.12.87c1.27.58,2.37,1.46,3.3,2.65.93,1.19,1.66,2.68,2.19,4.5.53,1.81.79,3.96.79,6.43ZM446.35,140.46c0-2.05-.15-3.74-.45-5.08-.3-1.34-.7-2.41-1.2-3.21s-1.08-1.35-1.73-1.67c-.65-.32-1.33-.48-2.03-.48s-1.36.16-2,.48-1.22.88-1.71,1.67c-.5.79-.89,1.86-1.18,3.21-.29,1.34-.44,3.04-.44,5.08s.15,3.74.44,5.08c.29,1.34.69,2.41,1.18,3.21.5.8,1.07,1.35,1.71,1.67.65.32,1.31.48,2,.48s1.38-.16,2.03-.48c.65-.32,1.23-.88,1.73-1.67.5-.79.9-1.86,1.2-3.21.3-1.34.45-3.04.45-5.08Z" stroke-width="0"/><path d="M471.9,126.01c1.3,0,2.5.19,3.58.58,1.08.38,2.01.93,2.78,1.63.77.7,1.37,1.55,1.8,2.54.43.99.65,2.09.65,3.3,0,1.04-.15,2.01-.46,2.89-.31.89-.72,1.73-1.23,2.54-.51.81-1.12,1.59-1.81,2.35-.69.76-1.41,1.52-2.17,2.31l-6.37,6.51c.63-.18,1.24-.32,1.84-.42s1.17-.15,1.72-.15h7.25c.52,0,.94.15,1.24.44.31.29.46.68.46,1.16v2.89h-19.39v-1.6c0-.33.07-.66.21-1.02.14-.35.36-.68.66-.98l8.58-8.6c.72-.73,1.36-1.43,1.93-2.09.57-.66,1.04-1.32,1.43-1.97.38-.65.68-1.31.88-1.98.2-.67.3-1.38.3-2.12,0-.68-.1-1.27-.29-1.79-.2-.51-.48-.95-.84-1.3-.37-.35-.8-.62-1.3-.79-.5-.18-1.07-.26-1.69-.26-1.16,0-2.11.29-2.86.88s-1.27,1.38-1.57,2.37c-.14.5-.36.85-.65,1.07-.29.21-.65.32-1.09.32-.2,0-.41-.02-.65-.06l-2.54-.45c.2-1.36.57-2.54,1.13-3.57.56-1.02,1.26-1.88,2.1-2.56.84-.68,1.8-1.2,2.89-1.54,1.09-.35,2.26-.52,3.51-.52Z" stroke-width="0"/><path d="M509.05,143.94h3.56v2.8c0,.26-.08.49-.25.67s-.42.28-.74.28h-2.56v6.9h-4.22v-6.9h-11.92c-.33,0-.61-.1-.86-.3-.25-.2-.4-.45-.47-.75l-.49-2.44,13.39-17.89h4.57v17.63ZM504.82,134.69c0-.42.01-.87.04-1.35.03-.48.07-.98.14-1.51l-8.78,12.1h8.6v-9.25Z" stroke-width="0"/></svg>